HIERARCHY
ROOT Hips
{
	OFFSET -0.179506 -22.333345 2.821913
	CHANNELS 6 Xposition Yposition Zposition Zrotation Yrotation Xrotation 
	JOINT LeftUpLeg
	{
		OFFSET 6.951974 -9.140623 -0.681533
		CHANNELS 3 Zrotation Yrotation Xrotation
		JOINT LeftLeg
		{
			OFFSET 3.427654 -37.519855 -0.449580
			CHANNELS 3 Zrotation Yrotation Xrotation
			JOINT LeftFoot
			{
				OFFSET -1.359570 -39.796059 -4.369333
				CHANNELS 3 Zrotation Yrotation Xrotation
				JOINT LeftToe
				{
					OFFSET 2.635814 -5.579078 11.928840
					CHANNELS 3 Zrotation Yrotation Xrotation
					End Site
					{
						OFFSET 0.000000 0.000000 0.000000
					}
				}
			}
		}
	}
	JOINT RightUpLeg
	{
		OFFSET -6.767048 -9.052170 -0.431982
		CHANNELS 3 Zrotation Yrotation Xrotation
		JOINT RightLeg
		{
			OFFSET -3.829005 -38.256897 -0.885003
			CHANNELS 3 Zrotation Yrotation Xrotation
			JOINT RightFoot
			{
				OFFSET 1.577377 -39.841461 -4.231180
				CHANNELS 3 Zrotation Yrotation Xrotation
				JOINT RightToe
				{
					OFFSET -2.537174 -4.814398 12.334795
					CHANNELS 3 Zrotation Yrotation Xrotation
					End Site
					{
						OFFSET 0.000000 0.000000 0.000000
					}
				}
			}
		}
	}
	JOINT Spine
	{
		OFFSET -0.253288 10.896323 -2.669631
		CHANNELS 3 Zrotation Yrotation Xrotation
		JOINT Spine1
		{
			OFFSET 0.548704 13.518043 0.109247
			CHANNELS 3 Zrotation Yrotation Xrotation
			JOINT Spine2
			{
				OFFSET 0.145701 5.292222 2.542457
				CHANNELS 3 Zrotation Yrotation Xrotation
				JOINT Neck
				{
					OFFSET -0.277840 21.387037 -4.285703
					CHANNELS 3 Zrotation Yrotation Xrotation
					JOINT Head
					{
						OFFSET 0.515184 6.496960 5.134897
						CHANNELS 3 Zrotation Yrotation Xrotation
						End Site
						{
							OFFSET 0.000000 0.000000 0.000000
						}
					}
				}
				JOINT LeftShoulder
				{
					OFFSET 7.884473 12.174932 -3.408961
					CHANNELS 3 Zrotation Yrotation Xrotation
					JOINT LeftArm
					{
						OFFSET 9.097692 3.046888 -0.886815
						CHANNELS 3 Zrotation Yrotation Xrotation
						JOINT LeftForeArm
						{
							OFFSET 25.961220 -1.277207 -2.745643
							CHANNELS 3 Zrotation Yrotation Xrotation
							JOINT LeftHand
							{
								OFFSET 24.923361 0.898606 -0.117091
								CHANNELS 3 Zrotation Yrotation Xrotation
								End Site
								{
									OFFSET 0.000000 0.000000 0.000000
								}
							}
						}
					}
				}
				JOINT RightShoulder
				{
					OFFSET -8.175920 11.883285 -3.861528
					CHANNELS 3 Zrotation Yrotation Xrotation
					JOINT RightArm
					{
						OFFSET -9.601238 3.255117 -0.914307
						CHANNELS 3 Zrotation Yrotation Xrotation
						JOINT RightForeArm
						{
							OFFSET -25.374195 -1.332924 -2.140099
							CHANNELS 3 Zrotation Yrotation Xrotation
							JOINT RightHand
							{
								OFFSET -25.529810 0.777228 -0.555919
								CHANNELS 3 Zrotation Yrotation Xrotation
								End Site
								{
									OFFSET 0.000000 0.000000 0.000000
								}
							}
						}
					}
				}
			}
		}
	}
}
MOTION
Frames: 6
Frame Time: 0.033333
-63.209156 19.766439 84.845535 -170.038769 4.897343 95.349490 11.722867 0.191561 -54.721087 -5.067501 20.666943 42.491775 1.456523 9.337206 -9.377137 nan nan nan -21.357365 -3.879953 9.680325 3.374448 2.446011 20.115081 12.980398 4.308468 -5.119295 nan nan nan 3.138882 15.649889 17.613452 4.688253 -3.320769 13.150351 2.264544 0.102539 -3.109086 -0.828664 10.175852 -2.139408 -4.841402 1.953881 -18.218463 -21.160101 7.671197 6.406066 -59.263109 26.267348 15.893981 -10.221492 -48.119302 35.111962 2.388076 -29.054685 -11.376792 26.553590 3.301654 -1.398362 43.711521 0.911661 7.325339 -76.622324 79.537847 -69.104209 -22.816676 31.652052 -19.033892 
-64.666000 22.591698 85.611389 -169.133943 5.456956 95.465625 11.780756 0.113201 -54.146599 -5.639085 19.183529 38.016121 1.040858 8.276278 -6.644890 nan nan nan -21.008379 -3.896882 13.181150 2.806959 1.604330 16.217051 14.092456 3.872320 1.943172 nan nan nan 3.330266 16.265503 16.614635 5.026109 -3.302474 13.472164 2.187031 0.257120 -3.364151 -0.304238 9.997502 -0.873347 -4.656298 0.734400 -18.870014 -20.309399 8.277876 6.797505 -59.757589 27.380831 15.117408 -11.804863 -48.959709 36.431372 3.118152 -29.113554 -12.504526 26.019108 2.915661 -1.129930 43.440970 -0.157891 6.732989 -80.206156 80.185667 -73.076491 -23.180140 31.843601 -19.526206 
-66.072151 25.416229 86.340614 -168.374632 6.158317 95.558987 11.950446 0.192637 -53.490821 -5.997882 17.637112 34.167584 0.692096 7.119457 -4.494963 nan nan nan -20.005672 -3.534514 16.632288 1.811947 1.236667 12.141182 14.360651 2.960640 8.529537 nan nan nan 3.634720 16.680385 15.622113 5.323513 -3.128806 14.150728 2.004172 0.436251 -4.037313 0.364626 10.247792 0.486702 -4.802780 -0.785176 -19.351243 -19.433256 9.057388 7.248031 -60.726548 28.449789 14.402540 -11.747039 -50.061599 36.544444 2.786362 -29.085574 -13.183691 25.315706 2.390602 -0.583990 43.532592 -1.069353 6.565432 -82.654565 80.377483 -74.823960 -23.218042 31.456081 -20.425078 
-67.460602 28.241711 86.982391 -167.634864 6.914795 95.661295 12.180844 0.411857 -52.931699 -6.242376 16.406748 31.220017 0.418506 5.945024 -2.979991 nan nan nan -18.480888 -2.902652 19.886390 0.630369 1.572599 8.437644 13.685893 1.954666 13.626732 nan nan nan 4.144072 16.967738 14.507663 5.486443 -2.839070 15.058605 1.666268 0.521883 -4.689128 1.030839 10.695267 1.689924 -4.912756 -2.489075 -19.900383 -18.363046 9.901437 7.705168 -61.866440 29.082410 13.651595 -11.114311 -51.030878 35.907754 1.814053 -29.254442 -13.606931 24.538216 1.749855 0.055193 44.028628 -1.669585 6.457686 -82.241767 80.530671 -73.400837 -23.185055 31.016643 -21.433463 
-68.828758 31.073006 87.545082 -166.985136 7.723141 95.772884 12.336835 0.947548 -52.489805 -6.403332 15.554395 29.159126 0.321568 5.175241 -1.963884 nan nan nan -16.612862 -2.339373 22.528405 -0.585790 2.559773 5.885906 12.366022 0.829148 17.237974 nan nan nan 4.563656 17.367486 13.331088 5.630172 -2.560385 15.861466 1.341728 0.636552 -5.160025 1.776950 10.800004 2.721844 -4.907633 -3.903900 -20.450877 -17.526549 10.610623 8.145243 -62.113615 29.580659 12.774319 -12.312487 -52.134895 37.236853 1.997044 -29.026079 -14.494482 24.056908 1.149175 0.596414 44.247224 -2.243142 6.209154 -79.816557 80.866596 -70.281873 -24.146161 30.477305 -22.476719 
-70.175491 33.899551 88.033020 -166.434669 8.384610 95.797072 12.215532 1.548709 -51.986071 -6.192532 15.364191 27.916377 0.572470 4.863334 -1.530600 nan nan nan -15.263414 -2.542149 23.392043 -1.366102 3.725499 7.220380 11.495643 0.619758 16.929337 nan nan nan 4.634703 17.694839 12.325711 5.713715 -2.241134 16.581766 1.217847 0.790949 -5.575911 2.249199 10.610820 3.408922 -4.654999 -4.667368 -20.858786 -16.934460 11.223327 8.267740 -62.424866 30.122193 11.950482 -12.834381 -53.155020 37.787043 1.959872 -28.821355 -14.690867 23.724278 0.561013 0.989757 44.288290 -2.699513 6.287272 -75.813870 80.904239 -65.881961 -24.709267 30.338812 -22.952662 
